<?xml version="1.0" standalone="no"?><!DOCTYPE svg PUBLIC "-//W3C//DTD SVG 1.1//EN" "http://www.w3.org/Graphics/SVG/1.1/DTD/svg11.dtd"><svg t="1545968398734" class="icon" style="" viewBox="0 0 1024 1024" version="1.1" xmlns="http://www.w3.org/2000/svg" p-id="1290" xmlns:xlink="http://www.w3.org/1999/xlink" width="16" height="16"><defs><style type="text/css"></style></defs><path d="M512 64C263.471862 64 62 265.471862 62 514 62 762.528138 263.471862 964 512 964 760.528138 964 962 762.528138 962 514 962 451.544772 949.276668 392.06124 926.280596 337.99999L816.595554 338C846.734334 389.705688 864 449.836538 864 514 864 707.299662 707.299662 864 514 864 320.700338 864 164 707.299662 164 514 164 321.367442 319.620614 165.082026 512 164.005594 539.614238 164 562 141.614237 562 114 562 86.385763 539.614238 64 512 64ZM616.31911 338.593638L523.788644 638.853098C519.016524 654.11184 515.89634 668.543086 514.427996 682.147266L512.776116 682.147266C511.674858 668.910766 508.829984 654.847196 504.241408 639.956134L412.011492 338 314 338 460.191298 765.150732 562.883114 765.150732 711.001606 338 710.961926 337.997314C712.287126 334.832842 722.14981 291.39736 757.182618 289.660156 792.566406 289.660154 816.661132 338.064946 816.661132 338.064946 816.661132 338.064946 927.171874 340.064456 927.171874 340.064454 887.203124 238.028322 821.572266 202.881334 767.441406 202.824219 663.758118 202.71482 635.480544 277.653706 618.437178 331.73566L618.215388 332.440256C617.723424 334.004924 617.240694 335.551662 616.765624 337.078126 616.605486 337.592678 616.456714 338.097802 616.319114 338.593628Z" p-id="1291" fill="#707070"></path></svg>